# xmcd CD database file
#
# Track frame offsets:
#	150
#	23083
#	41503
#	62763
#	84825
#	104228
#	121670
#	146335
#	166253
#	190873
#	207903
#	226078
#
# Disc length: 3331 seconds
#
# Revision: 1
# Processed by: cddbd v1.5PL3 Copyright (c) Steve Scherf et al.
# Submitted via: CDex 1.51
#
DISCID=940d010c
DTITLE=WQXI-FM - 94-Q - The Best of Jazz Flavours III
DYEAR=1987
DGENRE=Jazz
TTITLE0=When Love All Around You Calls
TTITLE1=Looking For You
TTITLE2=Three Questions
TTITLE3=Flight of the Butterfly
TTITLE4=Grand National Anthem
TTITLE5=Cocoon
TTITLE6=Nina's Journey
TTITLE7=You Move Me
TTITLE8=Aprilsong
TTITLE9=Somebody New
TTITLE10=This Time
TTITLE11=Winter Moon
EXTD=YEAR: 1987
EXTT0=
EXTT1=
EXTT2=
EXTT3=
EXTT4=
EXTT5=
EXTT6=
EXTT7=
EXTT8=
EXTT9=
EXTT10=
EXTT11=
PLAYORDER=
